# xmcd
#
# Track frame offsets: 
#        150
#        15603
#        30773
#        42763
#        55447
#        70417
#        85310
#        98533
#        110629
#        125391
#        140211
#        153618
#        168073
#        182146
#        196696
#        214564
#        227463
#        246814
#        261988
#
# Disc length: 3666 seconds
#
# Revision: 1
# Processed by: cddbd v1.5.2PL0 Copyright (c) Steve Scherf et al.
# Submitted via: ExactAudioCopy v0.95b2
#
DISCID=fb0e5013
DTITLE=Django Reinhardt - Jazz Ballads 7 [CD1]
DYEAR=2004
DGENRE=Jazz
TTITLE0=Body And Soul
TTITLE1=I Can't Give You Anything But Love
TTITLE2=Oriental Shufffle
TTITLE3=Are You In The Mood
TTITLE4=Liebestraum Nr. 3
TTITLE5=A Little Love, A Little Kiss
TTITLE6=Improvisation
TTITLE7=Time On My Hands
TTITLE8=Lentement, Mademoiselle
TTITLE9=Lover Man
TTITLE10=Don't Worry About Me
TTITLE11=The Man I Love
TTITLE12=Japanese Sandman
TTITLE13=Tea For Two
TTITLE14=I'll Never Be The Same
TTITLE15=All The Things You Are
TTITLE16=La Mer (Beyond The Sea)
TTITLE17=Where Are You My Love?
TTITLE18=September Song
EXTD=
EXTT0=
EXTT1=
EXTT2=
EXTT3=
EXTT4=
EXTT5=
EXTT6=
EXTT7=
EXTT8=
EXTT9=
EXTT10=
EXTT11=
EXTT12=
EXTT13=
EXTT14=
EXTT15=
EXTT16=
EXTT17=
EXTT18=
PLAYORDER=
